<?xml version="1.0" standalone="no"?>
<!DOCTYPE svg PUBLIC "-//W3C//DTD SVG 20010904//EN"
 "http://www.w3.org/TR/2001/REC-SVG-20010904/DTD/svg10.dtd">
<svg version="1.0" xmlns="http://www.w3.org/2000/svg"
 width="640.000000pt" height="640.000000pt" viewBox="0 0 640.000000 640.000000"
 preserveAspectRatio="xMidYMid meet">
<metadata>
Created by potrace 1.14, written by Peter Selinger 2001-2017
</metadata>
<g transform="translate(0.000000,640.000000) scale(0.100000,-0.100000)"
fill="#000000" stroke="none">
<path d="M0 6390 c0 -11 60 -11 105 0 23 6 15 8 -37 9 -40 1 -68 -3 -68 -9z"/>
<path d="M315 6385 c30 -14 81 -11 99 6 6 5 -18 9 -60 8 -67 -1 -68 -1 -39
-14z"/>
<path d="M2640 5677 c0 -16 32 -18 42 -3 5 7 8 4 8 -6 0 -11 -10 -20 -25 -24
-16 -4 -25 -13 -25 -26 0 -17 -3 -18 -15 -8 -8 7 -15 19 -15 26 0 8 -5 14 -11
14 -6 0 -9 6 -6 13 7 18 -67 21 -82 3 -8 -10 -9 -16 -1 -21 5 -3 10 -22 10
-42 0 -30 -2 -34 -15 -23 -8 7 -12 16 -9 21 3 5 1 16 -4 25 -6 11 -11 13 -16
5 -4 -6 -17 -11 -28 -11 -18 0 -20 -4 -15 -35 8 -48 -9 -44 -24 5 -9 28 -18
40 -31 40 -10 0 -18 -5 -18 -10 0 -6 -12 -22 -27 -35 -16 -13 -22 -25 -15 -25
6 0 12 -6 12 -14 0 -8 5 -16 11 -18 7 -2 7 -11 0 -28 -9 -24 -10 -24 -10 -2
-1 28 -17 29 -24 1 -3 -12 -10 -18 -16 -14 -6 3 -11 1 -11 -5 0 -6 -4 -8 -10
-5 -5 3 -10 0 -10 -7 0 -10 -2 -10 -9 1 -6 9 -11 10 -15 2 -4 -6 -16 -11 -28
-11 -18 0 -19 -2 -7 -17 13 -15 12 -15 -11 -2 -14 7 -28 13 -32 14 -3 0 -23
17 -44 38 -46 45 -71 48 -85 7 -6 -16 -15 -30 -19 -30 -5 0 -11 -19 -15 -42
-7 -45 -39 -89 -59 -82 -24 8 -39 -12 -29 -42 11 -34 29 -42 36 -14 6 23 27
27 27 5 0 -8 5 -15 10 -15 13 0 32 -48 24 -61 -3 -6 -11 -4 -17 5 -19 25 -57
9 -57 -23 0 -33 -29 -39 -31 -7 -1 18 -2 18 -8 -4 -5 -16 -13 -24 -24 -22 -9
2 -17 -2 -17 -8 0 -6 5 -8 10 -5 6 4 10 -6 10 -24 0 -16 -5 -33 -11 -36 -6 -4
-14 -17 -19 -29 -9 -21 -9 -21 -9 2 -1 36 -19 16 -26 -31 -4 -23 -18 -65 -31
-94 -21 -49 -29 -62 -61 -98 -7 -7 -13 -21 -13 -29 0 -9 -15 -39 -33 -68 -18
-29 -40 -69 -47 -88 -8 -19 -26 -56 -41 -82 -17 -28 -30 -69 -34 -105 -4 -32
-13 -77 -22 -99 -11 -32 -12 -50 -4 -80 8 -29 8 -40 -2 -47 -8 -6 -8 -10 -1
-13 16 -7 4 -64 -14 -64 -13 0 -12 -3 3 -20 17 -19 18 -23 3 -48 -9 -16 -14
-40 -11 -58 3 -19 -2 -45 -12 -64 -13 -25 -16 -54 -14 -131 2 -54 0 -102 -4
-105 -4 -4 -7 -29 -7 -56 0 -98 -29 -113 -246 -128 -75 -6 -146 -12 -158 -15
-11 -3 -59 -7 -106 -9 -47 -3 -143 -12 -215 -20 -71 -8 -192 -20 -268 -25 -76
-6 -142 -13 -147 -16 -6 -3 -63 -10 -127 -15 -65 -5 -135 -12 -155 -16 l-38
-6 0 -511 c0 -397 3 -508 12 -499 16 16 80 16 96 0 9 -9 15 -9 24 0 16 16 70
16 86 0 9 -9 15 -9 24 0 17 17 73 15 88 -3 10 -12 9 -16 -4 -21 -17 -7 -22
-34 -6 -34 16 0 23 -49 10 -65 -6 -8 -9 -23 -5 -36 5 -14 3 -19 -3 -15 -6 3
-20 -9 -31 -28 -18 -28 -21 -49 -21 -130 0 -84 3 -98 20 -113 11 -10 20 -26
20 -36 0 -16 -3 -17 -14 -8 -12 10 -15 6 -21 -18 -4 -17 -11 -33 -16 -36 -5
-4 -9 -15 -9 -26 0 -10 -4 -19 -8 -19 -10 0 -9 -36 1 -46 4 -4 7 -16 7 -26 0
-13 7 -18 25 -18 16 0 25 6 25 15 0 24 18 18 23 -7 3 -22 4 -22 15 5 11 25 16
28 49 25 28 -2 41 -9 48 -26 15 -34 68 -30 106 8 25 24 36 28 66 24 43 -5 58
-23 35 -40 -15 -11 -12 -13 21 -19 53 -10 105 2 112 25 8 25 46 35 73 21 11
-6 23 -24 27 -41 4 -16 11 -30 16 -30 14 0 10 -70 -7 -115 -40 -107 -51 -181
-40 -280 3 -22 5 -48 5 -57 1 -10 7 -18 14 -18 7 0 18 -9 25 -20 7 -11 20 -20
29 -20 14 0 13 3 -5 16 -29 20 -29 59 2 79 37 24 68 0 70 -54 1 -8 7 -16 15
-19 9 -3 11 0 6 7 -12 21 22 48 55 43 16 -2 30 -8 30 -13 0 -17 19 -9 25 10 3
11 19 26 35 33 16 7 31 21 35 33 5 20 6 19 25 -4 l20 -23 -1 173 c-2 195 3
225 36 233 18 5 21 11 17 33 -3 16 -16 44 -29 63 -29 43 -31 112 -5 155 10 17
22 61 26 100 4 38 12 75 17 82 6 7 8 17 4 23 -12 19 26 90 51 96 13 3 27 3 33
0 14 -9 41 4 41 19 0 7 5 15 11 17 6 2 11 23 11 46 -1 43 12 54 36 30 8 -8 15
-8 27 2 11 9 18 10 29 1 11 -9 15 -9 19 1 4 9 12 6 26 -11 18 -20 22 -21 27
-7 3 9 12 16 19 16 16 0 25 -21 27 -63 1 -26 2 -23 7 13 4 32 11 46 24 48 14
3 17 -4 17 -47 0 -47 2 -51 23 -48 14 1 22 -3 22 -13 0 -19 -61 -32 -75 -15
-6 7 -20 11 -30 8 -15 -4 -20 0 -20 14 0 24 -38 25 -46 1 -3 -12 -15 -18 -35
-18 -16 0 -29 -4 -29 -10 0 -5 -13 -16 -29 -25 -17 -8 -29 -22 -29 -32 1 -10
-2 -39 -6 -66 -5 -30 -4 -47 3 -47 6 0 9 -20 8 -47 -2 -45 -1 -47 31 -55 32
-9 41 -21 21 -33 -7 -5 -3 -15 11 -30 24 -26 20 -44 -19 -73 -28 -20 -70 -91
-64 -108 2 -5 23 -8 48 -6 51 4 69 -15 41 -43 -11 -11 -16 -12 -16 -4 0 17
-13 2 -16 -18 -2 -10 -8 -26 -13 -38 -6 -11 -15 -60 -20 -110 -5 -49 -12 -100
-16 -112 -6 -18 -2 -23 27 -31 18 -5 47 -7 64 -5 20 3 36 -1 47 -11 19 -19 33
-20 43 -4 5 8 2 9 -10 5 -10 -4 -15 -3 -11 3 3 6 14 10 23 10 14 0 17 -9 17
-42 0 -23 -6 -43 -13 -46 -7 -2 -12 -11 -12 -19 0 -12 -3 -13 -14 -4 -11 9
-15 9 -18 0 -3 -8 -11 -10 -22 -6 -19 7 -18 20 0 85 5 18 2 22 -16 22 -16 0
-20 -4 -16 -18 4 -11 -2 -28 -14 -42 -26 -30 -26 -70 1 -104 15 -20 17 -27 7
-31 -27 -10 -52 3 -71 36 l-20 35 29 60 29 61 -30 0 c-16 0 -22 -2 -12 -4 19
-5 22 -18 7 -28 -6 -3 -10 -15 -10 -26 0 -12 -4 -17 -11 -13 -7 4 -10 -7 -8
-34 3 -38 0 -44 -37 -70 -36 -27 -47 -29 -113 -28 -42 1 -75 7 -79 14 -4 6
-30 10 -60 10 -51 -1 -69 -12 -34 -21 13 -4 12 -5 -5 -6 -12 0 -24 5 -27 12
-5 9 -7 9 -12 0 -6 -13 -49 -8 -70 8 -6 5 -15 4 -21 -2 -8 -8 -13 -8 -17 0
-10 15 -63 14 -70 -1 -4 -9 -5 -8 -5 2 3 38 -1 40 -31 19 -16 -12 -27 -25 -25
-30 3 -4 -3 -10 -13 -14 -14 -6 -10 -10 17 -19 37 -13 54 -36 27 -36 -24 0
-22 -66 2 -72 11 -3 18 1 19 11 4 48 10 56 45 59 27 2 41 -3 57 -19 12 -13 21
-17 21 -10 0 7 12 28 26 47 35 45 84 46 92 2 2 -13 -2 -16 -14 -11 -13 5 -15
2 -9 -16 5 -18 2 -24 -14 -28 -15 -4 -21 -13 -21 -33 0 -24 -30 -67 -30 -44 0
5 -5 2 -11 -6 -8 -11 -12 -12 -16 -2 -2 6 -15 12 -29 12 -17 0 -25 7 -30 25
-3 14 -10 22 -16 19 -5 -3 -7 -12 -4 -19 3 -8 -4 -17 -15 -20 -10 -4 -19 -11
-19 -16 0 -5 -6 -9 -13 -9 -8 0 -22 -17 -33 -37 -16 -30 -25 -37 -43 -35 l-24
4 23 -33 c22 -30 24 -31 31 -12 10 27 22 34 39 23 12 -7 11 -15 -8 -48 -12
-22 -22 -47 -22 -56 0 -9 -18 -35 -41 -58 -23 -24 -48 -58 -56 -77 -8 -18 -17
-31 -20 -27 -9 9 -43 -14 -43 -29 0 -8 -9 -15 -20 -15 -17 0 -20 -7 -20 -43 0
-53 -13 -67 -62 -67 -32 0 -39 -4 -44 -25 -3 -14 -10 -26 -15 -26 -19 -3 -25
-5 -49 -19 -18 -10 -54 -13 -125 -12 -55 2 -120 -3 -146 -9 -54 -14 -119 -5
-119 17 0 8 11 36 24 62 13 26 27 70 31 97 5 27 16 67 25 89 22 52 32 114 19
122 -6 3 -5 12 3 22 11 13 10 15 -4 9 -10 -3 -18 -2 -18 3 0 6 5 10 10 10 6 0
10 9 10 21 0 11 -4 18 -9 15 -5 -3 -11 1 -15 9 -9 25 -35 17 -42 -12 -10 -48
-14 -55 -26 -51 -8 3 -27 -29 -50 -81 l-38 -85 0 -303 0 -303 174 0 c166 0
175 1 181 20 3 11 4 29 0 39 -3 11 -1 22 5 26 5 3 10 14 10 24 0 10 11 28 25
41 14 13 25 29 25 36 0 7 5 16 12 20 8 5 9 2 3 -12 -5 -10 -9 -41 -9 -69 -1
-38 -5 -50 -16 -50 -17 0 -39 -32 -40 -57 0 -14 8 -18 35 -18 19 0 35 5 35 10
0 6 5 10 11 10 5 0 7 -4 4 -10 -4 -7 257 -10 777 -10 l783 1 62 112 c64 116
277 539 334 662 97 213 100 222 80 254 -12 19 -31 4 -31 -25 0 -13 -5 -24 -11
-24 -7 0 -10 25 -8 72 2 53 -2 86 -16 121 l-18 48 -25 -42 c-30 -51 -50 -39
-26 16 14 35 14 41 -1 82 -19 49 -15 63 11 42 16 -13 17 -11 10 16 -3 17 -11
84 -17 150 -11 116 -17 144 -26 117 -9 -24 -23 0 -23 38 0 41 22 73 45 64 9
-4 22 11 40 45 14 28 32 51 40 51 19 0 19 -9 0 -53 -8 -20 -15 -53 -14 -74 l1
-38 13 48 c25 93 41 75 55 -62 6 -56 15 -124 20 -149 23 -112 30 -151 35 -210
3 -38 1 -61 -4 -57 -5 3 -3 -8 5 -25 24 -48 21 -52 96 101 25 53 53 117 63
144 16 49 79 125 103 125 6 0 12 5 12 11 0 5 14 15 30 20 17 6 30 15 30 20 0
5 16 29 35 55 19 25 35 54 35 65 0 13 4 18 12 13 8 -5 9 -2 5 9 -4 11 -1 17 8
17 9 0 15 9 15 23 0 30 10 40 27 26 10 -9 13 -8 13 5 0 20 41 62 56 58 7 -1
17 11 22 28 10 28 15 30 57 30 26 0 55 5 65 10 10 6 47 15 82 21 35 5 77 12
95 16 19 3 35 13 38 23 3 11 20 21 40 24 19 4 37 10 39 15 3 4 -5 6 -18 4 -17
-4 -28 1 -36 17 -9 16 -19 20 -43 18 -32 -3 -67 21 -67 47 0 6 -18 20 -40 31
-22 10 -40 23 -40 28 0 6 -18 27 -40 47 -22 21 -40 42 -40 47 0 5 -11 15 -25
22 -14 7 -25 17 -25 22 0 4 -6 8 -14 8 -7 0 -16 13 -19 29 -3 16 -18 41 -32
56 -16 19 -25 39 -25 62 0 49 -36 125 -70 149 -26 18 -37 19 -92 12 -67 -8
-169 -17 -255 -22 -50 -4 -75 -15 -163 -74 -29 -20 -45 -23 -108 -21 -74 2
-74 2 -89 -29 -9 -18 -31 -41 -50 -53 -31 -20 -44 -21 -131 -15 -53 3 -111 7
-128 9 -31 4 -31 3 -26 -38 9 -80 -41 -122 -125 -105 -82 15 -100 27 -107 72
-4 22 -1 67 5 100 10 48 9 62 -1 68 -9 5 -9 9 -1 14 33 21 50 141 24 167 -5 5
-8 32 -5 59 3 31 -2 64 -13 93 -9 24 -15 57 -13 73 l4 29 11 -26 c12 -28 39
-44 48 -29 4 6 15 10 25 10 13 0 22 9 26 28 27 122 79 192 142 192 32 0 35 18
19 98 -18 83 -13 122 13 115 10 -3 21 0 24 6 4 6 1 9 -7 5 -21 -8 -65 54 -83
117 -31 113 -35 135 -30 179 35 318 39 396 18 409 -8 5 -13 11 -12 15 4 16
-14 74 -31 103 -26 42 -28 99 -4 117 10 7 18 23 19 37 1 13 7 23 14 22 7 -2
12 2 12 7 0 6 6 10 13 10 16 0 64 54 59 68 -2 6 7 13 20 17 32 10 92 68 145
143 25 34 48 62 51 62 16 1 45 31 47 47 2 30 15 43 41 43 13 0 24 5 24 10 0 6
14 10 30 10 17 0 30 4 30 9 0 13 25 20 137 36 54 8 130 21 168 30 46 11 92 15
135 11 307 -26 384 -41 485 -95 33 -18 60 -35 59 -39 -1 -4 11 -16 26 -27 15
-11 47 -39 71 -62 24 -23 48 -44 54 -45 5 -2 37 -30 70 -64 33 -34 67 -65 76
-70 15 -9 79 -113 79 -129 0 -5 -9 0 -20 10 -11 10 -20 15 -20 10 0 -4 -7 -2
-15 5 -8 6 -18 9 -23 6 -10 -6 -66 -16 -117 -21 -27 -2 -96 -31 -135 -55 -8
-5 -37 -19 -65 -31 -27 -11 -59 -25 -71 -31 -34 -16 -63 -90 -54 -138 4 -22
14 -48 23 -58 8 -9 22 -33 30 -52 14 -35 103 -149 142 -182 29 -25 75 -20 152
15 16 7 27 6 38 -3 12 -10 15 -10 15 4 0 10 4 15 8 12 5 -3 35 3 68 13 32 10
65 16 73 13 12 -4 11 8 -6 53 -2 6 10 16 27 22 27 10 32 9 43 -8 22 -36 27
-19 25 81 -1 55 -6 100 -10 100 -4 0 -12 10 -19 21 -9 18 -8 24 6 32 17 9 16
11 -5 27 -23 17 -23 17 -9 116 7 55 11 104 9 109 -2 6 -3 26 -3 45 1 19 -5 42
-13 51 -8 9 -22 33 -33 54 -22 46 -10 81 32 91 15 3 25 10 22 14 -3 5 0 19 7
31 10 17 10 23 0 26 -6 3 -9 10 -5 16 4 6 0 8 -10 4 -11 -4 -14 -2 -10 9 3 7
1 14 -5 14 -18 0 -66 85 -69 120 -4 64 -14 105 -37 150 -13 25 -36 77 -51 115
-36 91 -77 163 -112 197 -15 15 -44 43 -64 63 -19 19 -40 35 -46 35 -5 0 -18
9 -28 20 -10 11 -24 20 -30 20 -7 0 -20 11 -29 25 -9 14 -22 25 -28 25 -7 0
-5 -7 4 -17 38 -45 17 -82 -26 -46 -18 16 -19 16 -8 1 15 -18 7 -62 -9 -53 -5
4 -9 -5 -9 -18 0 -14 -6 -30 -14 -36 -11 -9 -12 -6 -8 16 7 46 12 176 7 199
-5 21 -64 64 -88 64 -7 0 -3 -6 8 -12 11 -6 30 -21 42 -33 19 -20 21 -27 12
-61 -8 -28 -13 -34 -20 -23 -7 11 -9 9 -9 -8 0 -12 -5 -25 -10 -28 -7 -4 -9 2
-4 19 5 21 3 25 -10 20 -9 -3 -16 -16 -17 -28 0 -15 -4 -11 -16 17 -9 23 -22
37 -33 37 -20 0 -30 19 -30 58 0 20 -3 23 -12 14 -9 -9 -18 -6 -40 15 -15 15
-30 24 -32 22 -3 -3 -6 -26 -8 -52 -2 -26 -6 -47 -9 -47 -15 0 -31 31 -26 50
3 13 -2 26 -16 36 l-22 16 23 -5 c28 -7 28 7 0 27 -22 16 -88 22 -88 9 0 -3
11 -21 25 -39 22 -29 23 -33 8 -39 -14 -5 -14 -8 -4 -14 10 -6 9 -12 -5 -25
-12 -13 -19 -14 -24 -6 -11 17 -21 -4 -14 -27 5 -17 4 -16 -10 1 -18 23 -21
14 -5 -15 5 -11 8 -28 6 -37 -3 -13 -7 -10 -15 11 -12 28 -32 29 -32 1 0 -29
-19 -13 -51 42 -30 53 -31 57 -14 72 14 13 16 13 10 2 -5 -9 -4 -12 1 -7 5 5
9 22 10 38 1 24 -4 32 -23 40 -35 13 -73 11 -73 -4z m50 -78 c0 -5 -4 -9 -10
-9 -5 0 -10 7 -10 16 0 8 5 12 10 9 6 -3 10 -10 10 -16z m-73 -5 c3 -8 0 -21
-7 -27 -10 -10 -12 -7 -7 10 2 12 0 24 -7 27 -7 3 -7 5 2 5 7 1 15 -6 19 -15z
m306 -14 c-7 -27 -13 -25 -11 4 1 14 5 23 9 20 4 -2 5 -13 2 -24z m-193 -79
c0 -21 -16 -2 -24 29 -7 24 -6 24 8 6 9 -11 16 -27 16 -35z m121 -4 c-8 -8
-11 -7 -11 4 0 20 13 34 18 19 3 -7 -1 -17 -7 -23z m384 -28 c-4 -46 -15 -66
-15 -28 0 26 10 69 16 69 2 0 1 -18 -1 -41z m-195 -10 c0 -5 -4 -9 -10 -9 -5
0 -10 7 -10 16 0 8 5 12 10 9 6 -3 10 -10 10 -16z m-1113 -171 c-3 -7 -5 -2
-5 12 0 14 2 19 5 13 2 -7 2 -19 0 -25z m1565 10 c9 -13 18 -27 18 -33 1 -5 6
-15 10 -20 5 -6 14 -23 20 -39 7 -21 7 -27 -2 -24 -6 2 -12 12 -14 22 -1 10
-6 21 -10 24 -4 4 -4 -1 -1 -10 4 -11 2 -18 -6 -18 -17 1 -71 74 -57 78 5 2 8
8 4 13 -6 10 3 29 14 29 4 0 15 -10 24 -22z m-77 3 c-3 -5 -1 -12 5 -16 14 -9
2 -25 -18 -24 -10 0 -12 3 -5 6 9 3 10 10 3 24 -9 15 -7 19 5 19 9 0 14 -4 10
-9z m-1498 -173 c-3 -7 -5 -2 -5 12 0 14 2 19 5 13 2 -7 2 -19 0 -25z m1853
-1138 c15 -36 7 -60 -20 -60 -28 0 -34 22 -20 65 13 40 22 39 40 -5z m-172 -5
c15 -14 44 -28 65 -31 51 -9 47 -20 -13 -33 -107 -23 -127 -24 -133 -7 -10 24
4 76 19 76 8 0 14 5 14 10 0 17 20 11 48 -15z m152 -75 c0 -5 -7 -10 -16 -10
-8 0 -12 5 -9 10 3 6 10 10 16 10 5 0 9 -4 9 -10z m-1953 -755 c2 -6 -13 -19
-32 -29 -19 -11 -35 -25 -35 -33 0 -7 -4 -13 -10 -13 -12 0 6 49 28 73 16 18
43 19 49 2z m-77 -102 c0 -5 -5 -15 -10 -23 -8 -12 -10 -11 -10 8 0 12 5 22
10 22 6 0 10 -3 10 -7z m-160 -142 c0 -12 -20 -25 -27 -18 -7 7 6 27 18 27 5
0 9 -4 9 -9z m-130 -20 c0 -13 -28 -21 -47 -14 -15 6 -14 8 7 14 36 10 40 10
40 0z m-72 -46 c0 -14 -4 -25 -9 -25 -5 0 -9 14 -9 31 0 16 4 28 9 25 5 -3 9
-17 9 -31z m32 -347 c0 -21 -22 -33 -46 -24 -14 5 -13 9 2 36 14 22 21 27 31
18 7 -6 13 -19 13 -30z m-838 -86 c8 -8 16 -7 29 1 15 9 22 7 39 -12 15 -18
20 -20 20 -8 0 21 20 33 30 17 5 -9 9 -9 14 -1 9 14 71 14 96 1 13 -7 21 -7
25 0 10 16 57 12 78 -7 15 -13 21 -15 24 -5 7 19 58 14 77 -7 12 -13 15 -27
10 -47 -5 -20 -3 -26 4 -19 6 6 12 24 14 40 2 17 9 30 16 30 7 0 21 -13 32
-30 l20 -30 0 28 c0 15 5 27 10 27 6 0 10 -11 10 -24 0 -53 11 -57 34 -13 11
23 26 42 31 42 6 0 20 -20 33 -45 12 -25 26 -46 30 -48 5 -1 9 17 11 40 1 23
5 46 8 51 9 15 23 -16 23 -55 0 -30 4 -37 23 -40 30 -4 28 -32 -3 -35 -25 -2
-41 3 -93 28 -22 10 -32 10 -47 1 -11 -7 -33 -12 -49 -12 -24 0 -31 6 -42 33
l-13 32 -3 -26 c-3 -21 -11 -28 -35 -33 -18 -3 -34 -3 -37 2 -8 10 -19 8 -65
-12 -21 -10 -50 -19 -65 -21 -14 -1 -26 -4 -26 -5 0 -1 -15 -3 -32 -5 -33 -3
-46 16 -23 30 12 8 9 105 -3 105 -5 0 -8 -15 -7 -32 3 -52 1 -58 -20 -58 -20
0 -24 8 -21 46 1 11 -5 26 -13 33 -12 10 -16 6 -23 -31 l-9 -43 -93 -2 c-68
-2 -98 -7 -111 -18 -17 -15 -75 -20 -104 -9 -25 9 -20 35 7 33 57 -5 97 1 97
16 0 7 8 18 17 23 16 9 16 12 -1 37 -13 20 -15 29 -6 40 13 16 65 14 82 -3z
m1440 -370 c14 -6 29 -15 32 -21 3 -5 20 -12 36 -16 17 -4 28 -11 24 -16 -3
-5 3 -9 13 -9 10 0 33 -9 51 -20 18 -11 38 -20 45 -20 7 0 20 -9 30 -20 9 -11
26 -20 37 -20 11 0 20 -5 20 -10 0 -6 11 -15 24 -20 13 -5 27 -18 31 -29 4
-12 15 -21 26 -21 11 0 17 -5 14 -10 -4 -6 -11 -7 -17 -4 -6 4 -8 3 -5 -3 12
-19 -18 -63 -50 -75 -19 -7 -34 -20 -35 -30 -4 -45 -2 -53 12 -53 8 0 17 -11
18 -25 2 -14 1 -22 -4 -18 -4 4 -13 0 -20 -10 -13 -16 -13 -16 -14 1 0 21 -16
23 -24 2 -8 -23 -34 -18 -38 8 -2 17 -9 21 -28 19 -13 -1 -27 -8 -31 -14 -4
-6 -17 -13 -30 -15 -32 -5 -99 -43 -136 -77 -26 -24 -35 -27 -47 -17 -8 7 -32
10 -57 8 -53 -5 -84 20 -96 80 l-8 41 -45 -15 c-31 -11 -45 -12 -48 -4 -4 13
-62 15 -62 2 0 -12 -58 -5 -75 9 -22 18 32 110 65 110 23 0 54 -36 47 -55 -11
-28 11 -15 25 15 17 40 36 45 70 20 15 -11 28 -16 28 -9 0 6 8 22 19 35 16 21
20 22 31 9 7 -8 19 -15 27 -15 7 0 16 -6 19 -14 5 -12 9 -11 25 5 10 10 19 24
19 29 0 6 10 10 21 10 18 0 19 -2 9 -15 -10 -12 -9 -15 4 -15 10 0 15 4 12 9
-3 5 4 11 15 14 14 4 18 10 13 18 -6 10 -9 10 -12 1 -7 -23 -24 -12 -20 13 3
14 3 25 1 25 -3 0 -14 -11 -25 -25 -11 -14 -26 -25 -34 -25 -8 0 -12 -4 -9
-10 3 -5 1 -10 -4 -10 -6 0 -11 3 -12 8 0 4 -2 17 -5 30 -2 12 1 22 7 22 8 0
8 5 -1 15 -10 12 -10 15 2 15 15 0 41 58 31 73 -3 5 -8 4 -13 -3 -5 -8 -9 -5
-13 9 -3 12 -1 24 4 27 5 3 9 0 9 -5 0 -6 5 -11 10 -11 6 0 10 7 10 15 0 8 -7
15 -15 15 -16 0 -21 25 -6 34 5 3 7 16 4 28 -11 40 35 54 99 30z m1448 -32 c0
-5 -5 -10 -11 -10 -5 0 -7 5 -4 10 3 6 8 10 11 10 2 0 4 -4 4 -10z m-2637 -32
c4 -10 8 -10 15 1 8 11 16 8 40 -14 17 -15 28 -33 25 -41 -4 -10 0 -12 11 -8
8 3 14 10 13 16 -1 5 6 15 16 21 24 17 50 -2 58 -42 7 -36 -9 -51 -56 -51 -16
0 -24 -4 -19 -11 5 -8 1 -8 -14 0 -14 7 -23 8 -27 1 -3 -5 -1 -10 6 -10 7 0
10 -3 7 -6 -4 -3 -16 -1 -27 6 -15 7 -21 8 -21 0 0 -11 -59 -40 -80 -40 -7 0
-9 8 -5 19 3 12 0 21 -10 25 -10 3 -15 -1 -16 -12 0 -10 -3 -12 -6 -4 -2 6
-11 12 -19 12 -8 0 -14 5 -14 11 0 8 -4 8 -12 2 -7 -6 -22 -9 -33 -7 -10 1
-24 -1 -30 -5 -5 -5 -25 -12 -42 -16 -18 -3 -33 -11 -33 -16 0 -5 -5 -9 -11
-9 -8 0 -8 4 0 14 14 17 -9 39 -31 31 -8 -3 -21 2 -29 11 -11 14 -12 18 -1 22
10 3 9 8 -4 23 -15 17 -15 20 -1 43 22 32 52 41 80 23 20 -13 25 -12 46 1 19
13 28 14 54 4 17 -6 33 -8 36 -3 6 8 72 8 101 0 8 -2 14 2 13 9 -2 6 1 12 6
12 5 0 12 -6 14 -12z m1053 -13 c4 -8 3 -27 0 -41 -6 -21 -11 -25 -39 -22 -28
3 -32 7 -35 35 -3 26 1 32 20 36 42 8 49 7 54 -8z m-132 -5 c31 -11 35 -44 9
-72 -16 -18 -16 -19 5 -25 33 -8 16 -23 -29 -23 -46 0 -48 9 -13 55 15 21 21
36 15 40 -6 3 -15 4 -20 0 -5 -3 -13 0 -17 6 -3 6 0 15 7 20 17 11 13 11 43
-1z m-681 -52 c-3 -16 -9 -28 -13 -28 -13 0 -18 36 -8 55 14 24 28 6 21 -27z
m52 32 c3 -5 -1 -10 -9 -10 -8 0 -18 5 -21 10 -3 6 1 10 9 10 8 0 18 -4 21
-10z m112 -17 c14 -21 13 -22 -19 -32 -25 -7 -27 -9 -10 -10 36 -2 25 -21 -12
-21 -34 0 -46 13 -46 49 0 44 61 54 87 14z m-897 -13 c0 -5 -2 -10 -4 -10 -3
0 -8 5 -11 10 -3 6 -1 10 4 10 6 0 11 -4 11 -10z m1310 -45 c0 -1 -7 -8 -15
-15 -13 -10 -15 -9 -15 8 0 15 5 20 15 16 8 -4 15 -7 15 -9z m-1186 -1 c9 -3
16 -10 16 -15 0 -12 -97 -12 -105 0 -9 16 58 27 89 15z m660 -146 c21 -29 20
-48 -1 -64 -26 -20 -47 -17 -72 10 -18 20 -21 28 -12 44 20 37 63 42 85 10z
m117 6 c16 -20 2 -31 -21 -16 -16 10 -21 9 -30 -7 -5 -11 -10 -27 -10 -35 0
-9 -7 -16 -15 -16 -17 0 -21 41 -6 68 12 22 65 26 82 6z m937 -406 c9 -9 12
-9 12 0 0 7 5 12 10 12 6 0 10 -11 10 -24 0 -28 -20 -47 -20 -19 -1 13 -5 11
-16 -9 -20 -38 -34 -35 -34 5 0 46 14 59 38 35z m117 -12 c25 -38 29 -89 11
-124 -16 -32 -36 -43 -36 -21 0 7 5 29 11 49 10 31 9 44 -5 70 -9 18 -16 37
-16 42 0 16 20 8 35 -16z m-403 -12 c17 -16 17 -18 -3 -35 -12 -10 -26 -16
-30 -13 -5 3 -9 0 -9 -5 0 -6 9 -12 20 -12 11 -1 26 -2 33 -3 6 -1 14 14 17
34 5 33 7 35 45 35 36 0 40 -2 40 -25 0 -18 -5 -25 -17 -24 -13 1 -18 -5 -18
-22 0 -13 -4 -24 -8 -24 -5 0 -15 -11 -22 -25 -16 -30 -44 -35 -35 -5 5 17 3
19 -22 14 -33 -6 -87 11 -78 26 11 17 -3 11 -28 -12 -50 -47 -85 -78 -90 -78
-7 0 5 132 14 158 11 29 76 32 85 5 3 -10 8 -25 11 -33 3 -10 9 -5 18 17 7 17
22 33 32 36 10 3 20 5 22 6 3 0 13 -6 23 -15z m-782 -3 c0 -4 -11 -6 -25 -3
-14 2 -25 6 -25 8 0 2 11 4 25 4 14 0 25 -4 25 -9z m1005 -21 c14 -16 15 -23
6 -34 -7 -8 -10 -20 -6 -26 3 -5 -6 -15 -20 -20 -35 -13 -41 -13 -59 6 -17 16
-13 56 7 82 14 18 52 15 72 -8z m-580 -120 c3 -5 1 -10 -4 -10 -6 0 -11 5 -11
10 0 6 2 10 4 10 3 0 8 -4 11 -10z m336 -54 c-8 -10 -9 -16 -1 -21 5 -3 10
-20 10 -36 0 -17 6 -32 15 -35 27 -11 17 -34 -15 -34 -17 0 -30 -5 -30 -12 0
-7 -7 -2 -16 11 -15 21 -16 24 -1 32 13 8 14 15 5 40 -8 24 -8 33 3 40 7 4 10
11 6 15 -4 4 -2 13 5 21 7 9 14 11 21 4 7 -7 6 -15 -2 -25z m-630 -38 c15 -27
3 -52 -37 -83 -34 -26 -35 -26 -62 -9 -17 11 -22 19 -14 22 7 2 19 -4 27 -14
7 -11 17 -15 22 -11 4 5 -5 19 -22 32 -29 24 -29 24 -13 59 25 51 73 53 99 4z
m221 9 c13 -21 9 -26 -19 -24 -23 2 -29 -3 -31 -23 -4 -26 -20 -42 -34 -34 -9
6 -11 65 -2 88 7 18 73 13 86 -7z m96 7 c12 -8 22 -23 23 -32 0 -11 4 -9 10 8
19 48 72 56 91 14 12 -25 12 -25 20 -5 8 23 27 28 29 9 1 -7 2 -24 2 -38 1
-15 8 -25 17 -25 8 0 16 11 18 25 6 45 22 47 22 3 0 -37 -3 -42 -29 -48 -36
-8 -54 -4 -63 15 -4 9 -7 3 -7 -16 -1 -17 -10 -39 -20 -48 -19 -17 -21 -17
-43 3 -30 29 -64 36 -93 21 -25 -14 -60 -6 -68 14 -8 20 18 87 39 103 23 16
25 16 52 -3z m842 6 c0 -5 7 -10 15 -10 19 0 19 -10 0 -24 -18 -13 -9 -56 11
-56 8 0 14 -5 14 -11 0 -6 -12 -9 -27 -7 -21 2 -29 11 -38 43 -8 28 -8 45 -1
58 12 19 26 23 26 7z m-390 -16 c11 -13 10 -19 -9 -37 -16 -16 -20 -17 -16 -6
4 10 2 20 -3 23 -5 3 -9 -11 -10 -31 -1 -23 -9 -42 -24 -55 l-23 -20 -3 28
c-2 15 -1 47 3 71 6 41 8 43 39 43 19 0 39 -7 46 -16z m198 7 c8 -4 12 -14 11
-22 -1 -8 2 -22 6 -33 10 -24 -17 -71 -42 -71 -20 0 -45 43 -35 59 4 6 5 19 4
29 -6 35 27 57 56 38z m-99 -15 c6 -7 9 -28 7 -47 -3 -30 -7 -34 -32 -32 -44
3 -54 11 -54 37 0 46 53 74 79 42z m-994 -181 c0 -19 -5 -29 -13 -27 -7 1 -15
-5 -19 -14 -5 -13 -7 -13 -14 -2 -7 10 -9 10 -9 1 0 -7 -4 -13 -9 -13 -14 0
-23 35 -15 64 5 22 11 25 42 23 34 -2 37 -5 37 -32z m85 3 c34 -56 24 -117
-27 -165 l-23 -22 0 22 c0 13 7 33 16 45 10 15 13 33 9 55 -5 24 -4 28 4 17 9
-13 11 -12 11 6 0 11 -7 29 -15 40 -17 23 -19 34 -5 34 6 0 19 -15 30 -32z
m120 -34 c0 -8 -7 -14 -15 -14 -15 0 -21 21 -9 33 10 9 24 -2 24 -19z m-332
-67 c2 -11 -3 -17 -17 -17 -23 0 -35 15 -26 31 10 15 39 6 43 -14z m337 3 c8
-13 -21 -60 -36 -60 -15 0 -25 33 -11 38 7 2 12 10 12 18 0 16 26 19 35 4z
m-780 -410 c-3 -5 -10 -10 -16 -10 -5 0 -9 5 -9 10 0 6 7 10 16 10 8 0 12 -4
9 -10z m-48 -32 c-3 -8 -6 -5 -6 6 -1 11 2 17 5 13 3 -3 4 -12 1 -19z m-6 -98
c5 0 9 5 9 12 0 6 2 9 5 6 3 -3 2 -16 -3 -29 l-9 -23 -12 21 c-6 12 -10 30
-10 40 1 13 3 12 6 -4 2 -13 9 -23 14 -23z m1386 -42 c-3 -8 -6 -5 -6 6 -1 11
2 17 5 13 3 -3 4 -12 1 -19z m-1246 -25 c34 -93 49 -97 49 -15 l0 42 40 0 c34
0 42 -4 52 -25 9 -21 9 -29 -5 -42 -9 -9 -26 -17 -39 -18 -17 -1 -23 -8 -23
-26 0 -17 -6 -24 -20 -24 -14 0 -19 -6 -16 -20 3 -20 3 -20 -18 -1 -12 11 -21
25 -21 33 0 8 -11 13 -27 13 l-28 0 25 -20 25 -19 -40 3 c-22 2 -43 4 -47 5
-14 2 -8 28 15 73 39 76 60 87 78 41z m250 11 c11 -13 11 -20 -2 -42 -8 -15
-25 -28 -37 -30 -14 -2 -22 -10 -22 -22 0 -10 -4 -22 -10 -25 -14 -9 -23 40
-16 90 7 43 9 45 40 45 19 0 40 -7 47 -16z m223 -6 c8 -13 8 -23 -1 -37 -9
-15 -9 -23 2 -37 25 -33 16 -39 -15 -9 -30 28 -34 27 -31 -7 2 -11 -4 -18 -14
-18 -13 0 -15 9 -11 53 2 28 5 58 5 65 1 19 52 11 65 -10z m556 6 c0 -8 -4
-12 -10 -9 -5 3 -10 10 -10 16 0 5 5 9 10 9 6 0 10 -7 10 -16z m-483 -95 c13
-11 18 -10 33 9 10 12 21 18 24 13 9 -13 -22 -41 -44 -41 -10 0 -28 11 -39 25
-17 23 -18 30 -8 58 l12 32 3 -42 c2 -23 10 -47 19 -54z m711 38 c2 -20 7 -37
13 -37 5 0 9 -4 9 -10 0 -5 -17 -10 -37 -10 -34 1 -36 2 -20 14 18 14 24 66 7
66 -5 0 -10 5 -10 11 0 6 8 9 18 7 12 -2 18 -14 20 -41z m74 -12 c-2 -25 -9
-45 -14 -45 -6 0 -8 13 -4 31 3 17 6 38 6 45 0 8 3 14 8 14 4 0 6 -20 4 -45z
m-695 -2 c-3 -10 -5 -4 -5 12 0 17 2 24 5 18 2 -7 2 -21 0 -30z m474 -40 c-12
-20 -14 -14 -5 12 4 9 9 14 11 11 3 -2 0 -13 -6 -23z m-1194 -50 c-14 -13 -37
8 -37 33 l0 27 21 -27 c12 -15 19 -30 16 -33z m468 17 c-3 -5 -30 -9 -58 -8
l-52 1 45 7 c69 11 72 11 65 0z m-385 -10 c0 -5 -2 -10 -4 -10 -3 0 -8 5 -11
10 -3 6 -1 10 4 10 6 0 11 -4 11 -10z"/>
<path d="M530 2365 c0 -19 5 -35 10 -35 6 0 10 7 10 16 0 9 5 12 12 8 8 -5 9
-2 5 10 -4 10 -7 22 -7 27 0 5 -7 9 -15 9 -10 0 -15 -11 -15 -35z"/>
<path d="M1160 2351 c0 -12 5 -21 10 -21 6 0 10 6 10 14 0 8 -4 18 -10 21 -5
3 -10 -3 -10 -14z"/>
<path d="M1910 1534 l-35 -13 37 0 c20 -1 39 3 43 8 9 16 -8 18 -45 5z"/>
<path d="M500 1930 c-8 -16 -8 -20 3 -20 8 0 20 6 26 14 9 10 8 15 -4 19 -9 4
-19 -2 -25 -13z"/>
<path d="M530 1859 c0 -5 5 -7 10 -4 6 3 10 8 10 11 0 2 -4 4 -10 4 -5 0 -10
-5 -10 -11z"/>
<path d="M1158 1923 c7 -3 16 -2 19 1 4 3 -2 6 -13 5 -11 0 -14 -3 -6 -6z"/>
<path d="M1033 1704 c-3 -8 -1 -20 6 -27 14 -14 47 15 37 32 -10 16 -36 13
-43 -5z"/>
<path d="M1710 1244 c0 -8 5 -12 10 -9 6 3 10 10 10 16 0 5 -4 9 -10 9 -5 0
-10 -7 -10 -16z"/>
<path d="M1160 1050 c0 -5 5 -10 10 -10 6 0 10 5 10 10 0 6 -4 10 -10 10 -5 0
-10 -4 -10 -10z"/>
<path d="M2040 1040 c20 -13 33 -13 25 0 -3 6 -14 10 -23 10 -15 0 -15 -2 -2
-10z"/>
<path d="M2038 1003 c6 -2 18 -2 25 0 6 3 1 5 -13 5 -14 0 -19 -2 -12 -5z"/>
<path d="M676 173 c-2 -3 -2 -11 1 -19 7 -18 43 -18 43 0 0 13 -34 28 -44 19z"/>
<path d="M570 140 c0 -11 5 -20 10 -20 6 0 10 9 10 20 0 11 -4 20 -10 20 -5 0
-10 -9 -10 -20z"/>
<path d="M790 166 c0 -16 27 -29 41 -20 13 8 -9 34 -27 34 -8 0 -14 -6 -14
-14z"/>
<path d="M1022 163 c4 -22 43 -25 43 -3 0 8 -11 16 -23 18 -19 3 -23 0 -20
-15z"/>
<path d="M2760 5662 c0 -5 7 -15 15 -22 8 -7 15 -8 15 -2 0 5 -7 15 -15 22 -8
7 -15 8 -15 2z"/>
<path d="M2806 5647 c9 -32 22 -43 35 -30 16 16 5 39 -21 46 -18 5 -20 2 -14
-16z"/>
<path d="M2756 5578 c5 -13 8 -33 9 -45 0 -24 10 -30 20 -13 3 5 -1 25 -9 45
-16 38 -32 49 -20 13z"/>
<path d="M3161 5588 c1 -7 5 -24 9 -38 7 -22 8 -21 9 13 1 20 -3 37 -9 37 -5
0 -10 -6 -9 -12z"/>
<path d="M3202 5555 c0 -16 2 -22 5 -12 2 9 2 23 0 30 -3 6 -5 -1 -5 -18z"/>
<path d="M3767 4849 c7 -7 15 -10 18 -7 3 3 -2 9 -12 12 -14 6 -15 5 -6 -5z"/>
<path d="M3790 4794 c8 -10 15 -20 16 -22 1 -2 4 1 7 5 3 5 -4 15 -16 23 -21
12 -21 12 -7 -6z"/>
<path d="M2275 4740 c-3 -5 -2 -10 4 -10 5 0 13 5 16 10 3 6 2 10 -4 10 -5 0
-13 -4 -16 -10z"/>
<path d="M2593 4133 c-27 -6 -60 -14 -75 -17 -15 -4 -33 -13 -41 -20 -9 -9
-24 -12 -37 -9 -16 4 -21 3 -16 -5 4 -7 4 -17 0 -23 -5 -8 -9 -8 -14 1 -6 9
-11 7 -20 -9 -8 -16 -17 -20 -31 -16 -15 5 -22 2 -26 -13 -3 -13 -10 -19 -19
-15 -9 3 -14 0 -12 -8 2 -8 -5 -14 -17 -14 -13 0 -21 -9 -25 -31 -4 -17 -10
-36 -14 -42 -12 -19 -25 -14 -19 8 3 11 1 20 -4 20 -5 0 -15 -9 -23 -20 -8
-11 -19 -20 -25 -20 -19 -1 -58 -37 -47 -44 8 -4 5 -13 -8 -26 -11 -11 -20
-31 -20 -45 0 -14 -4 -25 -9 -25 -11 0 -31 -87 -31 -133 0 -43 32 -69 90 -75
40 -3 48 0 74 27 17 17 40 31 52 31 13 0 27 6 31 14 4 7 23 23 41 34 21 12 29
22 20 24 -19 7 28 94 68 124 36 28 44 30 44 10 0 -23 60 -67 81 -61 13 4 19 2
19 -8 0 -17 40 -30 63 -21 8 3 18 1 22 -5 3 -6 -1 -11 -10 -11 -19 0 -45 -23
-45 -39 0 -11 12 -15 43 -12 9 1 17 -3 17 -8 0 -6 -7 -11 -15 -11 -8 0 -15 -4
-15 -9 0 -5 -12 -11 -27 -14 -16 -3 -62 -14 -103 -26 -41 -11 -84 -20 -95 -19
-28 2 -95 -22 -95 -33 0 -6 8 -8 18 -5 33 9 248 55 354 75 125 24 208 64 208
100 0 6 7 11 16 11 19 0 94 59 94 75 0 6 9 21 20 33 20 21 26 52 13 66 -4 3
-8 34 -9 69 -4 92 -12 121 -39 147 -21 20 -36 23 -122 25 -54 2 -98 4 -98 5 0
8 -144 3 -182 -7z m-53 -293 c0 -5 -4 -10 -10 -10 -5 0 -10 5 -10 10 0 6 5 10
10 10 6 0 10 -4 10 -10z m171 -59 c6 10 9 8 9 -8 0 -13 -3 -23 -7 -23 -5 0
-19 -3 -32 -7 l-24 -6 19 25 c10 15 21 22 23 16 2 -6 7 -4 12 3z m14 -61 c-3
-5 -13 -10 -21 -10 -8 0 -14 5 -14 10 0 6 9 10 21 10 11 0 17 -4 14 -10z"/>
<path d="M3650 3810 c0 -5 5 -10 10 -10 6 0 10 5 10 10 0 6 -4 10 -10 10 -5 0
-10 -4 -10 -10z"/>
<path d="M4922 3698 c7 -20 68 -23 68 -4 0 12 -10 16 -36 16 -24 0 -34 -4 -32
-12z"/>
<path d="M2515 3534 c-94 -19 -174 -38 -171 -41 2 -3 42 3 88 11 45 8 110 19
143 24 l60 9 -50 1 c-27 0 -59 -2 -70 -4z"/>
<path d="M3450 3488 c-41 -17 -84 -28 -115 -28 -103 -1 -200 -42 -267 -112
-39 -40 -35 -64 17 -116 45 -44 45 -44 105 -40 51 4 65 9 93 36 59 57 120 62
148 11 14 -28 49 -66 49 -55 0 5 7 3 14 -4 22 -18 120 -3 143 22 15 16 15 21
3 28 -8 6 -22 10 -30 10 -11 0 -10 4 5 12 37 22 62 55 63 84 1 16 4 49 8 73 9
58 -8 87 -58 99 l-40 10 -24 -51 c-14 -29 -22 -44 -19 -33 8 27 -4 83 -18 82
-7 0 -41 -12 -77 -28z m165 -267 c3 -5 1 -12 -5 -16 -5 -3 -10 1 -10 9 0 18 6
21 15 7z"/>
<path d="M4655 3183 c-15 -25 -7 -73 13 -80 9 -4 20 -11 24 -17 13 -20 16 -1
10 54 -7 58 -28 76 -47 43z"/>
<path d="M4779 3192 c-17 -3 -32 -39 -23 -54 3 -4 12 -8 21 -8 19 0 42 -28 43
-52 0 -15 9 -18 45 -18 l45 0 -15 35 c-8 19 -22 51 -30 70 -15 36 -27 40 -86
27z"/>
<path d="M2974 3179 c-3 -6 -3 -14 2 -18 5 -3 10 -51 12 -106 2 -87 5 -102 22
-114 11 -7 20 -23 20 -35 0 -25 54 -116 69 -116 15 0 119 -94 150 -136 16 -22
58 -70 93 -109 60 -64 68 -70 109 -72 24 -1 55 -4 69 -6 14 -2 39 -5 55 -6 27
-1 31 -5 30 -28 -2 -25 -6 -29 -46 -34 -24 -3 -38 -7 -30 -7 11 -2 11 -6 -2
-20 -10 -10 -17 -25 -17 -34 0 -8 23 -62 51 -119 93 -191 136 -371 104 -442
l-13 -32 -1 50 c-1 36 -4 46 -11 35 -10 -16 -14 -8 -10 24 3 27 -20 66 -39 67
-11 0 -12 2 -3 6 6 2 12 11 12 19 0 11 -8 14 -27 12 -28 -3 -28 -4 -29 -78 -1
-60 3 -79 18 -96 17 -19 18 -28 8 -90 -6 -40 -19 -77 -29 -89 -10 -11 -22 -31
-26 -45 -4 -14 -18 -41 -31 -60 -13 -19 -24 -38 -24 -42 0 -4 -10 -18 -22 -31
-70 -75 -84 -108 -97 -231 -6 -63 -15 -102 -25 -112 -9 -8 -16 -23 -16 -33 0
-10 -11 -35 -25 -55 -14 -20 -25 -40 -25 -43 0 -3 -11 -21 -25 -39 -14 -18
-20 -34 -15 -36 13 -4 -12 -131 -29 -152 -8 -9 -10 -28 -5 -50 5 -29 3 -36
-10 -36 -13 0 -16 -12 -16 -64 0 -36 -4 -68 -10 -71 -5 -3 -10 0 -10 7 0 7 -7
0 -16 -17 -10 -18 -16 -54 -16 -93 0 -52 -3 -64 -20 -73 -17 -9 -19 -18 -15
-50 4 -29 2 -39 -9 -39 -9 0 -14 -11 -14 -34 0 -18 -6 -39 -14 -45 -8 -6 -19
-33 -26 -59 -6 -26 -15 -51 -19 -57 -4 -5 -11 -18 -14 -27 -6 -17 80 -18 1713
-18 l1720 0 0 290 0 290 -34 52 c-18 29 -52 89 -76 133 -47 88 -74 127 -83
119 -3 -3 -15 4 -27 16 -12 12 -27 19 -35 17 -9 -4 -11 1 -8 14 11 39 -45 117
-62 89 -8 -13 4 -32 16 -25 5 4 9 -3 9 -14 0 -14 5 -19 14 -15 11 4 13 0 9
-15 -7 -26 -12 -26 -30 -4 -12 16 -13 15 -7 -9 5 -21 2 -29 -11 -34 -10 -4
-21 -1 -26 7 -8 12 -12 11 -23 -4 -13 -17 -15 -16 -45 9 -17 14 -31 21 -31 14
0 -6 -10 -10 -22 -8 -15 2 -30 18 -44 44 -19 36 -20 42 -7 60 11 13 17 15 20
7 3 -7 13 -13 24 -13 10 0 19 -7 19 -15 0 -8 5 -15 10 -15 6 0 10 7 10 15 0
10 10 15 33 15 25 0 37 -8 55 -33 21 -28 23 -29 17 -7 -4 14 -14 29 -21 33 -8
4 -14 15 -14 24 0 13 3 13 15 3 9 -7 18 -10 22 -6 3 3 1 6 -5 6 -7 0 -11 4 -9
8 3 13 -105 132 -121 132 -8 0 -10 5 -6 13 5 8 2 8 -9 -2 -15 -12 -17 -11 -17
11 0 34 -10 40 -37 23 -13 -9 -23 -11 -23 -6 0 6 8 14 17 20 10 5 14 13 10 18
-5 4 -13 0 -18 -9 -7 -13 -21 -17 -49 -16 -21 1 -39 4 -38 7 2 21 -3 41 -11
41 -5 0 -24 14 -41 31 -33 34 -34 65 -1 54 11 -3 23 0 27 6 5 9 2 10 -9 6 -9
-3 -18 -1 -20 6 -3 8 -10 5 -20 -7 -14 -19 -15 -19 -26 2 -6 11 -11 30 -11 41
0 12 -4 21 -10 21 -5 0 -10 11 -10 24 0 13 -7 29 -16 37 -9 7 -29 32 -45 56
-45 65 -70 74 -149 55 -36 -8 -67 -18 -70 -22 -9 -11 -60 -4 -73 10 -10 10 -9
11 2 5 9 -5 12 -4 7 3 -7 12 -162 62 -192 62 -12 0 -24 3 -27 6 -4 4 -33 18
-64 33 -56 24 -65 25 -263 26 -113 0 -214 5 -225 10 -11 5 -41 27 -66 48 -48
41 -88 56 -258 94 -57 13 -76 14 -79 5 -2 -7 -10 -12 -18 -12 -20 0 -19 -93 1
-113 8 -8 11 -17 8 -21 -10 -10 -33 15 -33 36 0 11 -5 28 -10 39 -8 14 -7 19
1 19 7 0 9 9 5 25 -5 20 -2 27 16 34 21 8 19 10 -19 16 -23 4 -55 15 -71 25
-24 15 -30 26 -35 70 -4 29 -11 58 -17 65 -6 8 -10 22 -9 32 1 10 -1 41 -5 70
-6 42 -4 60 13 98 11 25 16 43 11 40 -12 -8 -13 5 -1 24 6 9 5 21 -1 30 -12
19 23 114 54 148 15 16 21 38 23 91 2 38 8 78 14 89 5 11 8 23 4 26 -3 4 0 13
6 21 9 10 10 32 3 80 -5 41 -5 71 1 82 7 12 7 19 0 21 -6 2 -17 25 -25 50 -8
28 -20 48 -30 51 -10 2 -18 10 -18 17 0 7 -8 16 -17 20 -26 10 -93 13 -93 3 0
-16 -20 -8 -65 27 -47 36 -102 52 -132 40 -10 -4 -28 -8 -41 -9 -13 -1 -26 -6
-30 -12 -4 -5 -19 -15 -34 -21 -16 -7 -28 -16 -28 -21 0 -5 -25 -7 -55 -4 -44
4 -56 1 -61 -12 -3 -9 -12 -16 -19 -16 -7 0 -15 -6 -18 -12 -4 -10 -7 -10 -18
0 -19 17 -49 15 -49 -4 0 -12 -7 -15 -27 -11 -28 5 -63 -10 -134 -57 l-36 -24
-16 56 c-9 33 -30 72 -48 92 -17 19 -37 49 -45 67 -16 37 -30 48 -40 32z m874
-262 c6 -5 12 -15 12 -22 0 -16 -31 -29 -40 -16 -4 7 -16 5 -34 -4 -15 -8 -31
-13 -35 -10 -4 2 -20 -3 -35 -10 -16 -8 -32 -13 -36 -10 -5 3 -11 -1 -13 -7
-3 -7 -6 -3 -6 8 -1 33 83 85 134 82 22 -1 46 -6 53 -11z m-358 -73 c0 -8 0
-17 0 -21 0 -5 -6 -8 -12 -8 -7 0 -21 -7 -31 -16 -20 -18 -102 -18 -137 1 -12
7 -20 8 -16 2 3 -5 -1 -15 -8 -21 -11 -9 -16 -9 -22 0 -5 9 -10 7 -16 -7 -6
-13 -7 -8 -3 15 3 19 7 36 8 37 10 11 115 29 171 31 51 1 66 -2 66 -13z m-258
-59 c-2 -14 -8 -25 -13 -25 -5 0 -9 -9 -9 -21 0 -11 -4 -18 -9 -15 -14 9 -10
56 5 56 8 0 14 7 14 15 0 8 4 15 9 15 4 0 6 -11 3 -25z m809 -1070 c29 -99 31
-244 6 -320 -9 -28 -24 -81 -33 -120 -9 -38 -25 -90 -36 -115 -19 -45 -27
-146 -14 -187 5 -16 1 -22 -18 -27 -21 -5 -26 -15 -36 -78 -7 -40 -17 -89 -23
-108 -6 -19 -11 -37 -12 -40 -2 -24 -66 -127 -89 -144 -16 -11 -57 -49 -91
-84 l-62 -63 2 38 c4 64 4 65 21 59 9 -4 13 -2 8 5 -3 6 -2 21 4 32 6 12 16
37 24 54 7 18 18 33 24 33 6 0 17 11 24 25 7 14 17 25 22 25 4 0 8 9 8 19 0
11 3 21 8 23 11 5 62 112 62 131 0 9 5 19 10 22 6 3 10 17 10 30 0 13 5 27 10
30 6 3 10 14 10 25 0 10 9 35 19 57 19 37 61 163 61 182 0 5 5 22 12 38 6 15
12 33 13 38 0 6 4 17 8 25 30 73 49 325 29 392 -6 18 -13 51 -16 73 -9 58 7
25 35 -70z m-394 -27 c-3 -8 -6 -5 -6 6 -1 11 2 17 5 13 3 -3 4 -12 1 -19z
m1813 -92 c0 -3 -4 -8 -10 -11 -5 -3 -10 -1 -10 4 0 6 5 11 10 11 6 0 10 -2
10 -4z m30 -6 c0 -5 -2 -10 -4 -10 -3 0 -8 5 -11 10 -3 6 -1 10 4 10 6 0 11
-4 11 -10z m397 -386 c-3 -3 -12 -4 -19 -1 -8 3 -5 6 6 6 11 1 17 -2 13 -5z
m68 -44 c3 -5 1 -10 -4 -10 -6 0 -11 5 -11 10 0 6 2 10 4 10 3 0 8 -4 11 -10z
m-915 -106 c0 -8 -4 -12 -10 -9 -5 3 -10 10 -10 16 0 5 5 9 10 9 6 0 10 -7 10
-16z m520 -40 c0 -13 5 -24 10 -24 6 0 10 4 10 10 0 5 12 13 26 16 27 7 58
-17 67 -52 3 -11 5 -4 6 16 1 31 4 35 31 37 21 2 33 -4 41 -18 15 -29 3 -36
-22 -13 -21 19 -21 19 -16 -14 3 -19 0 -35 -6 -39 -22 -13 -98 -15 -113 -2 -8
6 -18 9 -21 5 -4 -4 -1 -11 7 -16 13 -8 12 -10 -2 -10 -9 0 -20 5 -23 10 -4 6
-15 8 -24 5 -10 -3 -25 3 -36 14 -23 27 -13 69 20 81 14 5 25 14 25 20 0 6 5
8 10 5 6 -3 10 -17 10 -31z m-504 -19 c7 -41 31 -47 36 -8 2 21 9 27 33 30 35
5 55 -17 55 -60 0 -35 -16 -27 -25 12 -3 16 -13 32 -21 35 -11 4 -14 -4 -14
-36 0 -32 -3 -39 -12 -30 -8 8 -15 8 -24 1 -16 -13 -71 -8 -64 6 3 6 9 9 13 7
10 -3 -1 39 -14 53 -15 15 -10 25 11 25 14 0 21 -9 26 -35z m321 -19 c6 -19 7
-18 12 9 5 25 11 31 37 33 22 2 33 -2 38 -14 8 -22 -1 -31 -16 -16 -21 21 -31
13 -25 -18 7 -31 -8 -49 -25 -32 -7 7 -18 7 -34 0 -30 -14 -51 -5 -66 28 -11
23 -9 28 12 44 23 17 26 17 42 3 10 -9 21 -25 25 -37z m-897 -11 c-14 -16 -46
-20 -54 -6 -3 4 5 6 18 4 13 -3 27 0 30 6 4 6 10 11 13 11 3 0 0 -7 -7 -15z
m195 -5 c-3 -5 -12 -10 -18 -10 -7 0 -6 4 3 10 19 12 23 12 15 0z m-298 -6
c-3 -3 -12 -4 -19 -1 -8 3 -5 6 6 6 11 1 17 -2 13 -5z m458 -4 c3 -5 1 -10 -4
-10 -6 0 -11 5 -11 10 0 6 2 10 4 10 3 0 8 -4 11 -10z m-1205 -490 c0 -5 -4
-10 -10 -10 -5 0 -10 5 -10 10 0 6 5 10 10 10 6 0 10 -4 10 -10z m-41 -48 c-8
-15 -16 -29 -19 -32 -3 -3 -22 -29 -43 -58 l-38 -53 21 -27 c14 -17 17 -28 10
-30 -7 -3 -5 -11 6 -23 13 -14 25 -17 53 -13 29 5 40 1 55 -15 11 -12 25 -21
33 -21 19 0 16 -10 -13 -36 -15 -14 -37 -24 -55 -24 -24 0 -33 6 -44 32 -7 18
-11 36 -9 40 3 5 1 8 -4 8 -12 0 -22 -25 -22 -55 0 -25 -37 -42 -54 -25 -7 7
-2 10 12 10 12 0 22 5 22 11 0 6 -9 9 -20 6 -27 -7 -25 7 3 26 l22 16 -24 0
c-16 1 -21 5 -18 15 4 10 -24 34 -88 75 -93 60 -94 61 -88 93 3 18 8 35 10 38
3 3 32 -10 65 -29 l60 -33 44 46 c28 29 50 43 59 40 10 -4 13 -2 10 8 -3 8 1
21 10 28 13 11 14 10 9 -4 -9 -23 13 -20 28 4 18 28 24 15 7 -18z m-489 -102
c0 -5 -4 -10 -10 -10 -5 0 -10 5 -10 10 0 6 5 10 10 10 6 0 10 -4 10 -10z
m1627 -132 c-3 -8 -6 -5 -6 6 -1 11 2 17 5 13 3 -3 4 -12 1 -19z m-1332 -18
c3 -6 -1 -7 -9 -4 -18 7 -21 14 -7 14 6 0 13 -4 16 -10z m328 -37 c-7 -2 -19
-2 -25 0 -7 3 -2 5 12 5 14 0 19 -2 13 -5z m-308 -32 c-7 -13 -52 -15 -59 -2
-3 4 5 6 18 4 13 -3 27 0 31 7 4 6 9 9 12 6 3 -2 2 -9 -2 -15z m296 -9 c-13
-2 -27 0 -32 5 -6 6 3 7 23 4 28 -4 29 -6 9 -9z m339 2 c0 -2 -9 -4 -20 -4
-11 0 -20 4 -20 9 0 5 9 7 20 4 11 -3 20 -7 20 -9z m375 -2 c-3 -3 -11 0 -18
7 -9 10 -8 11 6 5 10 -3 15 -9 12 -12z m215 3 c0 -1 -9 -5 -20 -8 -12 -3 -20
0 -20 8 0 8 8 11 20 8 11 -3 20 -7 20 -8z m210 1 c0 -7 -6 -19 -14 -25 -11 -9
-12 -6 -8 14 5 26 22 35 22 11z"/>
<path d="M5510 980 c0 -23 15 -27 23 -6 3 8 -1 17 -9 20 -9 4 -14 -1 -14 -14z"/>
<path d="M5310 980 c0 -11 2 -20 4 -20 2 0 11 -3 20 -6 12 -5 16 0 16 20 0 19
-5 26 -20 26 -13 0 -20 -7 -20 -20z"/>
<path d="M4564 3158 c3 -13 6 -26 6 -30 0 -5 5 -8 10 -8 6 0 10 14 10 30 0 21
-5 30 -16 30 -12 0 -15 -6 -10 -22z"/>
<path d="M4938 3173 c-25 -6 -22 -27 8 -83 l25 -47 72 1 71 1 9 39 c7 29 6 40
-4 47 -22 14 -26 11 -38 -21 -6 -20 -17 -30 -30 -30 -19 0 -20 4 -15 44 6 39
4 44 -17 49 -26 7 -54 7 -81 0z"/>
<path d="M2613 3097 c-7 -26 -13 -56 -13 -67 0 -11 -5 -20 -11 -20 -7 0 -9 -8
-4 -22 4 -13 7 -31 7 -40 -1 -10 5 -15 13 -12 14 6 30 124 23 179 -3 27 -4 26
-15 -18z"/>
<path d="M4875 2970 c-7 -11 -7 -11 -182 -10 -144 1 -168 -5 -143 -35 10 -12
40 -15 136 -15 67 0 135 -5 151 -11 15 -6 53 -12 84 -12 43 -1 54 -4 45 -13
-6 -7 -13 -10 -15 -8 -7 7 -71 -59 -71 -73 0 -24 39 -14 57 15 22 35 89 102
103 102 5 0 10 12 10 26 0 22 -3 24 -14 15 -10 -9 -16 -9 -21 -1 -4 6 -23 10
-43 9 -20 -1 -49 3 -64 9 -16 7 -30 7 -33 2z"/>
<path d="M6349 2907 c-45 -30 -50 -69 -14 -103 14 -13 35 -24 46 -24 17 0 19
7 19 75 0 41 -4 75 -9 75 -4 0 -23 -10 -42 -23z"/>
<path d="M5913 2913 c-20 -7 -15 -23 7 -23 11 0 20 4 20 9 0 13 -12 19 -27 14z"/>
<path d="M1523 2325 c0 -8 4 -15 9 -15 4 0 8 7 8 15 0 8 -4 15 -8 15 -5 0 -9
-7 -9 -15z"/>
<path d="M3158 1913 c7 -3 16 -2 19 1 4 3 -2 6 -13 5 -11 0 -14 -3 -6 -6z"/>
<path d="M378 1753 c7 -3 16 -2 19 1 4 3 -2 6 -13 5 -11 0 -14 -3 -6 -6z"/>
<path d="M280 1700 c0 -5 -7 -10 -16 -10 -8 0 -13 -4 -9 -9 3 -6 0 -13 -7 -18
-25 -16 -56 -90 -83 -204 l-28 -116 21 -21 c23 -23 32 -92 12 -92 -5 0 -10 16
-10 36 0 49 -23 39 -28 -12 -1 -21 -7 -52 -12 -68 -6 -16 -10 -41 -10 -56 0
-22 5 -29 28 -32 15 -3 35 -9 45 -13 14 -6 17 -2 17 24 0 28 8 36 32 32 12 -2
1 64 -14 90 -11 18 -11 22 0 26 9 4 10 8 2 18 -17 20 9 55 41 55 22 0 26 5 27
33 3 55 9 83 44 220 8 35 7 41 -19 65 -15 14 -27 34 -25 44 2 10 1 18 -2 18
-3 0 -6 -4 -6 -10z"/>
<path d="M5770 1334 c1 -16 29 -46 39 -43 6 2 -1 15 -14 28 -14 13 -25 19 -25
15z"/>
<path d="M916 1273 c-4 -9 -1 -23 7 -30 18 -18 53 6 44 31 -8 21 -43 21 -51
-1z"/>
<path d="M955 1200 c-16 -7 -17 -9 -3 -9 9 -1 20 4 23 9 7 11 7 11 -20 0z"/>
<path d="M750 1075 c0 -8 -5 -15 -12 -15 -6 0 -4 -7 5 -18 10 -10 17 -25 17
-33 1 -8 6 -4 13 9 7 12 16 20 20 16 3 -4 9 0 13 9 7 19 -17 47 -40 47 -9 0
-16 -7 -16 -15z"/>
<path d="M129 1077 c-1 -1 -3 -12 -4 -25 -2 -17 2 -22 12 -18 8 3 17 6 19 6
11 0 2 29 -11 34 -8 3 -16 4 -16 3z"/>
<path d="M153 1000 c-18 -8 -33 -21 -33 -27 0 -7 -4 -13 -9 -13 -10 0 -31 -53
-31 -77 0 -8 4 -12 9 -8 5 3 13 1 16 -5 4 -6 15 -8 25 -5 11 3 29 1 40 -5 18
-10 22 -7 34 22 10 23 11 38 4 51 -5 10 -7 25 -4 34 3 8 0 22 -7 31 -11 15
-15 16 -44 2z"/>
<path d="M5913 969 c1 -10 6 -19 12 -19 16 0 15 28 -1 34 -8 3 -12 -3 -11 -15z"/>
<path d="M5990 965 c0 -8 4 -15 8 -15 5 0 9 7 9 15 0 8 -4 15 -9 15 -4 0 -8
-7 -8 -15z"/>
<path d="M739 889 c-2 -27 3 -44 17 -52 8 -4 14 -16 15 -25 0 -9 3 -12 5 -5 3
6 -2 25 -11 42 -8 17 -15 33 -14 37 0 3 -2 8 -5 12 -3 3 -7 -1 -7 -9z"/>
<path d="M472 420 c0 -14 2 -19 5 -12 2 6 2 18 0 25 -3 6 -5 1 -5 -13z"/>
</g>
</svg>
